<svg id="Layer_7" data-name="Layer 7" xmlns="http://www.w3.org/2000/svg" viewBox="0 0 655.03 829.28"><defs><style>.cls-1{fill:#fff;}.cls-2,.cls-5{fill:#231f20;}.cls-3{fill:#f99f1e;}.cls-4{fill:none;}.cls-4,.cls-5{stroke:#231f20;stroke-miterlimit:10;}</style></defs><title>Waddle</title><path class="cls-1" d="M571.5,201.5a31,31,0,1,1-10.67,60.11c43.32-32.88,0-58.22,0-58.22A30.94,30.94,0,0,1,571.5,201.5Z" transform="translate(-130.89 -122.41)"/><path class="cls-2" d="M560.83,203.39s43.32,25.34,0,58.22Z" transform="translate(-130.89 -122.41)"/><path class="cls-1" d="M571.5,201.5a31,31,0,1,0,31,31A30.94,30.94,0,0,0,571.5,201.5Zm213.82,98.78a28.62,28.62,0,0,1,0,4.44C783,340.6,751.85,800.66,711.5,951.5h-289C493,776,525.93,560,537.46,468.6A30.19,30.19,0,0,0,501,435.34c-19.29,4.24-37.73,7.6-55.28,10.22C461.41,426,468.07,391.62,470,354.45l.61-.33-.6.12c3.8-74.74-11.58-160.74-11.58-160.74,26.91-18.06,52.72-35.26,54.09-36C553.94,135,764,42.6,785.32,300.28Z" transform="translate(-130.89 -122.41)"/><path class="cls-2" d="M560.83,203.39v58.22a31,31,0,0,1,0-58.22Z" transform="translate(-130.89 -122.41)"/><path class="cls-1" d="M470.59,354.12l-.61.33a1.48,1.48,0,0,1,0-.21Z" transform="translate(-130.89 -122.41)"/><path class="cls-3" d="M458.41,193.5s15.38,86,11.58,160.74L450.13,358Z" transform="translate(-130.89 -122.41)"/><path class="cls-3" d="M470,354.24a1.48,1.48,0,0,0,0,.21,199.07,199.07,0,0,1-20.14,9.24l.29-5.65Z" transform="translate(-130.89 -122.41)"/><path class="cls-3" d="M458.41,193.5,450.13,358,131.44,419.11c-1.58-11.28,38.6-24.38,47.38-27.1a29,29,0,0,0,3.6-1.38c15.74-7.18,125-59.13,214.29-155.06C397.88,234.31,428.81,213.37,458.41,193.5ZM341.76,319.3c12.67-6.56,21.79-14.11,20.36-16.88s-12.87.3-25.54,6.86-21.79,14.1-20.36,16.87S329.09,325.85,341.76,319.3Z" transform="translate(-130.89 -122.41)"/><path class="cls-3" d="M449.84,363.69A199.07,199.07,0,0,0,470,354.45c-1.91,37.17-8.57,71.54-24.25,91.11h0Z" transform="translate(-130.89 -122.41)"/><path class="cls-3" d="M450.13,358l-.29,5.65c-101.16,40.4-318.4,55.42-318.4,55.42Z" transform="translate(-130.89 -122.41)"/><path class="cls-3" d="M449.84,363.69l-4.12,81.87c-124.85,18.67-204.34,0-218.22-3.06-.91-.2-59.54-10.06-60.45-10.18-25.38-3.24-34.89-8-35.61-13.21C131.44,419.11,348.68,404.09,449.84,363.69Z" transform="translate(-130.89 -122.41)"/><path class="cls-2" d="M362.12,302.42c1.43,2.77-7.69,10.32-20.36,16.88s-24.11,9.62-25.54,6.85,7.68-10.32,20.36-16.87S360.69,299.65,362.12,302.42Z" transform="translate(-130.89 -122.41)"/><path class="cls-4" d="M445.73,445.56c17.55-2.62,36-6,55.28-10.22a30.19,30.19,0,0,1,36.45,33.26C525.93,560,493,776,422.5,951.5" transform="translate(-130.89 -122.41)"/><path class="cls-4" d="M711.5,951.5C751.85,800.66,783,340.6,785.35,304.72a28.62,28.62,0,0,0,0-4.44C764,42.6,553.94,135,512.5,157.5c-1.37.74-27.18,17.94-54.09,36-29.6,19.87-60.53,40.81-61.7,42.07C307.42,331.5,198.16,383.45,182.42,390.63a29,29,0,0,1-3.6,1.38c-8.78,2.72-49,15.82-47.38,27.1.72,5.18,10.23,10,35.61,13.21.91.12,59.54,10,60.45,10.18,13.88,3.08,93.37,21.73,218.22,3.06" transform="translate(-130.89 -122.41)"/><path class="cls-4" d="M470,354.45c-1.91,37.17-8.57,71.54-24.25,91.11h0" transform="translate(-130.89 -122.41)"/><path class="cls-4" d="M458.41,193.5s15.38,86,11.58,160.74" transform="translate(-130.89 -122.41)"/><line class="cls-4" x1="314.83" y1="323.16" x2="314.83" y2="323.15"/><path class="cls-4" d="M131.44,419.11s217.24-15,318.4-55.42A199.07,199.07,0,0,0,470,354.45l.61-.33" transform="translate(-130.89 -122.41)"/><path class="cls-4" d="M560.83,203.39a31,31,0,1,0,10.67-1.89A31,31,0,0,0,560.83,203.39Z" transform="translate(-130.89 -122.41)"/><path class="cls-4" d="M560.83,203.39s43.32,25.34,0,58.22" transform="translate(-130.89 -122.41)"/><path class="cls-4" d="M316.22,326.15c1.43,2.77,12.87-.3,25.54-6.85s21.79-14.11,20.36-16.88-12.87.3-25.54,6.86S314.79,323.38,316.22,326.15Z" transform="translate(-130.89 -122.41)"/><path class="cls-5" d="M553.5,208.5c6.19.69,10.25,18.17,8.16,32.14-.46,3.07-2.26,15.13-7.16,15.86-5.5.82-14.65-12.67-14-26C541,219.57,548.21,207.91,553.5,208.5Z" transform="translate(-130.89 -122.41)"/></svg>